# xmcd
# 
# Track frame offsets:
#     183
#     20730
#     41480
#     53243
#     75933
#     91713
#     103145
#     120688
#     143998
#     160085
# 
# Disc length: 2356
# 
# Revision: 52
# Processed by: cddbd v1.5.2PL0 Copyright (c) Steve Scherf et al.
# Submitted via: fre:ac v1.0.27
# 
DISCID=6809330a,7309320a,7709320a
DTITLE=Van Morrison / Moondance
DYEAR=1970
DGENRE=Jazz-influenced Rock
TTITLE0=And It Stoned Me
TTITLE1=Moondance
TTITLE2=Crazy Love
TTITLE3=Caravan
TTITLE4=Into The Mystic
TTITLE5=Come Running
TTITLE6=These Dreams Of You
TTITLE7=Brand New Day
TTITLE8=Everyone
TTITLE9=Glad Tidings
EXTD=Van Morrison - Rhythm Guitar and Tambourine\nJack Schrorer - Alto and Soprano Sax\nCollin Tillton - Tenor Sax and Flute\nJeff Labes - Piano, Organ and Clavinette\nJohn Platania - Lead and Rhythm Guitars\nJohn Klingberg - Bass\nGarry Malabar - Drums a
EXTD=nd Vibes YEAR: 1970
EXTT0=
EXTT1=
EXTT2=
EXTT3=
EXTT4=
EXTT5=
EXTT6=
EXTT7=
EXTT8=
EXTT9=
PLAYORDER=
.
